<?xml version="1.0" encoding="UTF-8"?>
<svg id="Layer_1" data-name="Layer 1" xmlns="http://www.w3.org/2000/svg" xmlns:xlink="http://www.w3.org/1999/xlink" viewBox="0 0 400 795.93">
  <defs>
    <style>
      .cls-1 {
        fill: none;
      }

      .cls-2 {
        fill: #f1efe7;
      }

      .cls-3 {
        fill: #e02914;
      }

      .cls-4 {
        fill: #fff;
      }

      .cls-5 {
        fill: #0e1319;
      }

      .cls-6 {
        fill: #771a25;
      }

      .cls-7 {
        clip-path: url(#clippath);
      }
    </style>
    <clipPath id="clippath">
      <polygon class="cls-1" points="0 454.36 398.31 454.36 400 721.56 1.69 721.56 0 454.36"/>
    </clipPath>
  </defs>
  <g id="bottom-piece">
    <g class="cls-7">
      <g>
        <polygon class="cls-2" points="200.85 456.05 1.69 513.67 200.85 571.29 400 513.67 200.85 456.05"/>
        <polygon class="cls-6" points="400 513.67 400 738.31 200.85 795.93 200.85 571.29 400 513.67"/>
        <polygon class="cls-3" points="1.69 513.67 200.85 571.29 200.85 795.93 1.69 738.31 1.69 513.67"/>
        <polygon class="cls-6" points="200.85 477.56 76.05 513.67 200.85 549.78 325.65 513.67 200.85 477.56"/>
      </g>
    </g>
  </g>
  <g id="top-piece">
    <polygon class="cls-2" points="200.85 0 76.05 36.11 200.85 72.21 325.65 36.11 200.85 0"/>
    <polygon class="cls-6" points="325.65 36.11 325.65 176.88 200.85 212.99 200.85 72.21 325.65 36.11"/>
    <polygon class="cls-3" points="76.05 36.11 200.85 72.21 200.85 212.99 76.05 176.88 76.05 36.11"/>
    <g>
      <polygon class="cls-4" points="184.64 53.49 184.43 54.15 182.16 53.88 182.29 53.47 184.64 53.49"/>
      <path class="cls-5" d="M184.07,78c-.03.34-.02.62-.21.96-.74,1.35-2.58,4.39-3.36,4.97-.98.73-1.49.43-1.35-.08.65-2.38,2.06-4.23,2.06-4.23l-.52-.58,1.9-2.14s1.52.76,1.49,1.1Z"/>
      <path class="cls-5" d="M183.4,77.04l-2.92,2.56s-14.22-9.71-16.28-10.74-1.78-3.64-1.78-3.64c0,0,2.76-1.63,6.37.78,1.76,1.17,14.61,11.03,14.61,11.03Z"/>
      <path class="cls-5" d="M162.42,65.22s5.5-5.21,14.7-8.94c4.04-1.64,4.63-3.1,4.63-3.1l2.45,6.5s-8.69,4.1-12.09,5.87c0,0-6.65,2.73-7.63,3.02-.98.29-2.06-3.35-2.06-3.35Z"/>
      <path class="cls-5" d="M179,85.39c-.19.28-.33.52-.67.72-1.32.79-4.44,2.49-5.41,2.6-1.21.14-1.51-.38-1.12-.75,1.76-1.73,3.91-2.62,3.91-2.62l-.16-.76,2.72-.89s.93,1.42.74,1.7Z"/>
      <path class="cls-5" d="M178.91,84.22l-3.82.74s-7.38-15.55-8.64-17.49c-1.26-1.93.3-4.04.3-4.04,0,0,3.21-.01,5.11,3.89.93,1.9,7.05,16.89,7.05,16.89Z"/>
      <path class="cls-5" d="M166.51,65.22s5.2-6.03,14.4-9.76c4.04-1.64,6.7-.91,6.7-.91,0,0,1.28,3.5.22,5.56-1.06,2.06-8.23,3.68-11.63,5.44,0,0-6.65,2.73-7.63,3.02s-2.06-3.35-2.06-3.35Z"/>
      <path class="cls-5" d="M182.82,27.95l-.15-.84s1.24-4.23-.55-7.62c0,0-2.06-1.32-3.92-.85-3.14.8-2.66,4.13-2.66,4.13,0,0,.54,1.07.63,1.6.28,1.6,1.41,3.18,1.56,3.36.27.33.4.45.73.62.19.1.35-.05.35-.05l.91,3.02,3.86-1.31-.75-2.06Z"/>
      <path class="cls-5" d="M189.09,59.67s-12.43-2.61-12.36-3.12c.16-1.18.07-3.8,0-8.12-.09-5.22-2.01-12.16-1.65-14.24.85-4.82,3.96-4.84,3.96-4.84,0,0,3.02-.68,3.94-.29.92.39,3.46,3.96,3.99,5.47.53,1.51.52,12.77.35,14.78-.17,2.01,1.77,10.36,1.77,10.36Z"/>
      <path class="cls-5" d="M170.27,55.49c-.21.07-4.74,2.64-4.38,3.07.35.44.72.08.72.08,0,0,.12.11.29.15.17.04.4-.15.4-.15,0,0,.19-.02.5-.08.31-.06,1.2-.8,1.2-.8,0,0-.9.81-.62.88.29.07,1.72-1.07,1.72-1.07l1.3-1.34-1.14-.73Z"/>
      <path class="cls-5" d="M178.15,44.64s-.94,5.04-1.34,8.12c-.4,3.08-5.33,4.74-5.33,4.74l-1.48-2.4s2.97-2.55,3.31-4.59c.42-2.53.36-13.58.75-15.52.39-1.94,2.44-4.73,3.32-5.03s.77,14.67.77,14.67Z"/>
      <polygon class="cls-4" points="171.38 57.36 170.95 57.66 169.67 55.49 170.11 55.3 171.38 57.36"/>
      <polygon class="cls-4" points="182.08 30.56 181.33 36.65 179.75 42.78 179.19 34.86 179.04 30.01 178.83 29.37 178.88 28.94 180.7 29.49 183.16 28.94 183.35 29.22 182.08 30.56"/>
      <rect class="cls-4" x="183.27" y="36.87" width="2.43" height=".65" transform="translate(3.99 -16.09) rotate(5.05)"/>
      <path class="cls-5" d="M179.99,29.17l.16,1.49s.94.14.88-.03c-.06-.17.31-1.45.31-1.45h-1.35Z"/>
      <polygon class="cls-5" points="180.14 30.66 179.19 45.16 179.3 46.96 180.14 44.71 180.94 30.56 180.14 30.66"/>
      <polygon class="cls-4" points="163.67 59.6 175.91 59.97 171.6 49.56 158.76 49.34 163.67 59.6"/>
      <path class="cls-4" d="M181.34,56.85c-.1-.01-5.43,3.13-5.43,3.13l-12.24-.37,6.29-2.76h11.38Z"/>
      <path class="cls-5" d="M190.11,51.09s-5.53,3.12-8.2,4.25c-2.67,1.13-6.57,3.06-6.57,3.06l-1.26-2.92s7.69-3.4,9.32-4.42c1.64-1.02,4.47-3.1,4.47-3.1,0,0,2.7-1.04,3.52-.72.81.32-1.27,3.85-1.27,3.85Z"/>
      <path class="cls-5" d="M183.35,29.3c2.26.16,4.86,1.24,5.46,2.53.61,1.29,2.8,13.49,2.9,17.23,0,0-1.59,2.62-2.42,2.41-1.45-.37-2.37-7.49-2.42-8.85-.04-1.36.14-5.53-.75-6.39-.89-.87-2.77-6.93-2.77-6.93Z"/>
    </g>
  </g>
</svg>